<svg xmlns="http://www.w3.org/2000/svg" width="26.172" height="26.172" viewBox="0 0 26.172 26.172"><path d="M17.993,0H8.179A8.18,8.18,0,0,0,0,8.179v9.814a8.18,8.18,0,0,0,8.179,8.179h9.814a8.18,8.18,0,0,0,8.179-8.179V8.179A8.18,8.18,0,0,0,17.993,0Zm5.725,17.993a5.731,5.731,0,0,1-5.725,5.725H8.179a5.731,5.731,0,0,1-5.725-5.725V8.179A5.731,5.731,0,0,1,8.179,2.454h9.814a5.731,5.731,0,0,1,5.725,5.725Z" fill="#ffe800"/><path d="M134.543,128a6.543,6.543,0,1,0,6.543,6.543A6.543,6.543,0,0,0,134.543,128Zm0,10.632a4.089,4.089,0,1,1,4.089-4.089A4.1,4.1,0,0,1,134.543,138.632Z" transform="translate(-121.457 -121.457)" fill="#ffe800"/><circle cx="0.872" cy="0.872" r="0.872" transform="translate(19.248 5.18)" fill="#ffe800"/></svg>