<svg xmlns="http://www.w3.org/2000/svg" width="251.258" height="167.122" viewBox="0 0 251.258 167.122">
    <defs>
        <style>
            .cls-1{fill:#fff}.cls-2{fill:#ffe700}.cls-3{fill:url(#linear-gradient)}
        </style>
        <linearGradient id="linear-gradient" x1="-.041" x2="1.258" y1=".214" y2=".649" gradientUnits="objectBoundingBox">
            <stop offset=".001" stop-color="#ffe700"/>
            <stop offset=".088" stop-color="#fdde00"/>
            <stop offset=".472" stop-color="#f6bc00"/>
            <stop offset=".79" stop-color="#f2a700"/>
            <stop offset="1" stop-color="#f1a000"/>
        </linearGradient>
    </defs>
    <g id="Group_73" data-name="Group 73">
        <g id="Group_34" data-name="Group 34" transform="translate(0 87.427)">
            <path id="Path_52" d="M1331.678 1493.448a11.886 11.886 0 0 1-11.892 11.683H1301.6a1.583 1.583 0 0 1-1.608-1.609v-2.378a3.927 3.927 0 0 1 3.987-3.919h15.811a3.95 3.95 0 0 0 3.988-4.2 4.057 4.057 0 0 0-4.058-3.778h-7.835a11.884 11.884 0 0 1-11.892-11.683 12.061 12.061 0 0 1 12.1-12.1h14.761a1.627 1.627 0 0 1 1.609 1.609v2.378a4.032 4.032 0 0 1-3.987 3.989h-12.592a4.016 4.016 0 0 0-3.988 4.126 4.072 4.072 0 0 0 4.128 3.778h7.555a12.017 12.017 0 0 1 12.099 12.104z" class="cls-1" data-name="Path 52" transform="translate(-1299.986 -1453.573)"/>
            <path id="Path_53" d="M1390.281 1490.455a3.972 3.972 0 0 1 3.987 3.919v2.378a1.584 1.584 0 0 1-1.609 1.609h-7.136a11.883 11.883 0 0 1-11.892-11.893v-33.858a1.582 1.582 0 0 1 1.609-1.608h4.76a1.568 1.568 0 0 1 1.538 1.608v6.086h7.136a3.986 3.986 0 0 1 3.988 3.987v2.379a1.628 1.628 0 0 1-1.61 1.61h-9.514v19.8a4.031 4.031 0 0 0 3.988 3.988z" class="cls-1" data-name="Path 53" transform="translate(-1334.454 -1446.803)"/>
            <path id="Path_54" d="M1439.181 1505.131a11.883 11.883 0 0 1-11.892-11.893v-26.163a1.583 1.583 0 0 1 1.609-1.609h2.378a3.971 3.971 0 0 1 3.917 3.987v23.785a4.031 4.031 0 0 0 3.988 3.987h7.905a3.986 3.986 0 0 0 3.988-3.987v-23.785a3.985 3.985 0 0 1 3.988-3.987h2.378a1.569 1.569 0 0 1 1.538 1.609v26.163a11.883 11.883 0 0 1-11.892 11.893z" class="cls-1" data-name="Path 54" transform="translate(-1359.568 -1453.573)"/>
            <path id="Path_55" d="M1501.848 1482.774V1466.9a11.882 11.882 0 0 1 11.892-11.9h11.893v-7.9a3.941 3.941 0 0 1 3.987-3.987h2.38a1.568 1.568 0 0 1 1.538 1.608v48.34a1.569 1.569 0 0 1-1.538 1.61h-18.26a11.883 11.883 0 0 1-11.892-11.897zm23.785-19.8h-11.893a3.971 3.971 0 0 0-3.988 3.917v15.879a4.031 4.031 0 0 0 3.988 3.988h11.893z" class="cls-1" data-name="Path 55" transform="translate(-1394.465 -1443.11)"/>
            <path id="Path_56" d="M1587.258 1447.151v2.378a1.569 1.569 0 0 1-1.539 1.61h-4.758a1.583 1.583 0 0 1-1.609-1.61v-4.757a1.569 1.569 0 0 1 1.609-1.539h2.379a3.912 3.912 0 0 1 3.918 3.918zm0 9.517v36.447a1.569 1.569 0 0 1-1.539 1.61h-4.758a1.584 1.584 0 0 1-1.609-1.61v-36.447a1.583 1.583 0 0 1 1.609-1.609h4.758a1.569 1.569 0 0 1 1.539 1.61z" class="cls-1" data-name="Path 56" transform="translate(-1430.74 -1443.168)"/>
            <path id="Path_57" d="M1623.988 1505.131a11.883 11.883 0 0 1-11.892-11.893v-15.879a11.882 11.882 0 0 1 11.892-11.893h7.906a11.883 11.883 0 0 1 11.892 11.893v15.879a11.883 11.883 0 0 1-11.892 11.893zm0-31.69a3.971 3.971 0 0 0-3.988 3.917v15.879a4.031 4.031 0 0 0 3.988 3.987h7.906a3.985 3.985 0 0 0 3.987-3.987v-15.879a3.926 3.926 0 0 0-3.987-3.917z" class="cls-1" data-name="Path 57" transform="translate(-1446.065 -1453.573)"/>
        </g>
        <g id="Group_35" data-name="Group 35" transform="translate(.477 150.988)">
            <path id="Path_58" d="M1304.164 1578.669a5.562 5.562 0 0 1-.73-.05 2.608 2.608 0 0 1-.585-.129v3.538h-1.963l.01-11.753a5.051 5.051 0 0 1 1.292-.469 8.061 8.061 0 0 1 1.744-.16 3.9 3.9 0 0 1 3 1.171 4.613 4.613 0 0 1 1.083 3.264 5 5 0 0 1-1.057 3.359 3.492 3.492 0 0 1-2.794 1.229zm-.285-7.841a2.685 2.685 0 0 0-1.023.178l-.006 6.331a2.243 2.243 0 0 0 .877.146 1.956 1.956 0 0 0 1.729-.866 4.365 4.365 0 0 0 .6-2.475 4.938 4.938 0 0 0-.493-2.484 1.8 1.8 0 0 0-1.685-.83z" class="cls-2" data-name="Path 58" transform="translate(-1300.882 -1565.894)"/>
            <path id="Path_59" d="M1329.9 1574.925q.239 2.435 2.384 2.437a5.291 5.291 0 0 0 1.25-.129 3.98 3.98 0 0 0 .958-.356l.469 1.25a4.867 4.867 0 0 1-1.209.446 7.293 7.293 0 0 1-1.681.168 3.833 3.833 0 0 1-2.969-1.186 4.816 4.816 0 0 1-1.085-3.379 5.021 5.021 0 0 1 1-3.319 3.378 3.378 0 0 1 2.736-1.19 3.123 3.123 0 0 1 2.62 1.131 5.352 5.352 0 0 1 .882 3.352zm1.789-4.04a1.587 1.587 0 0 0-1.4.755 4.164 4.164 0 0 0-.5 2.285l3.62-.557a3.162 3.162 0 0 0-.446-1.881 1.488 1.488 0 0 0-1.269-.601z" class="cls-2" data-name="Path 59" transform="translate(-1313.584 -1565.905)"/>
            <path id="Path_60" d="M1359.833 1571.168a3.015 3.015 0 0 0-.909-.147 1.843 1.843 0 0 0-.943.209l-.006 7.386H1356l.006-8.278a5.84 5.84 0 0 1 1.641-.47 17.78 17.78 0 0 1 2.582-.144z" class="cls-2" data-name="Path 60" transform="translate(-1326.677 -1565.932)"/>
            <path id="Path_61" d="M1378.767 1578.766a5.258 5.258 0 0 1-1.371-.169 3.41 3.41 0 0 1-1.047-.459l.52-1.272a2.285 2.285 0 0 0 .69.361 2.808 2.808 0 0 0 .949.16 1.389 1.389 0 0 0 .974-.34 1.163 1.163 0 0 0 .375-.894 1.226 1.226 0 0 0-.284-.87 3.56 3.56 0 0 0-1.216-.661 2.8 2.8 0 0 1-1.354-.968 2.512 2.512 0 0 1 .351-3.2 2.774 2.774 0 0 1 2.006-.738 4.655 4.655 0 0 1 1.266.156 3.379 3.379 0 0 1 1.006.462l-.488 1.153a2.444 2.444 0 0 0-.591-.342 2.068 2.068 0 0 0-.8-.147 1.244 1.244 0 0 0-.918.332 1.115 1.115 0 0 0-.333.82 1.067 1.067 0 0 0 .323.812 4.249 4.249 0 0 0 1.25.682 3.033 3.033 0 0 1 1.37.992 2.58 2.58 0 0 1-.408 3.368 3.248 3.248 0 0 1-2.27.762z" class="cls-2" data-name="Path 61" transform="translate(-1336.203 -1565.925)"/>
            <path id="Path_62" d="M1404.034 1578.8a3.158 3.158 0 0 1-2.693-1.26 5.308 5.308 0 0 1-.94-3.272 5.4 5.4 0 0 1 .928-3.294 3.572 3.572 0 0 1 5.422 0 6.323 6.323 0 0 1-.005 6.582 3.159 3.159 0 0 1-2.712 1.244zm.006-7.823a1.308 1.308 0 0 0-1.316.891 6.588 6.588 0 0 0-.359 2.386 6.174 6.174 0 0 0 .362 2.322 1.427 1.427 0 0 0 2.63.01 6.332 6.332 0 0 0 .352-2.33 6.812 6.812 0 0 0-.338-2.4 1.3 1.3 0 0 0-1.331-.876z" class="cls-2" data-name="Path 62" transform="translate(-1347.46 -1565.934)"/>
            <path id="Path_63" d="M1433.325 1578.668l.005-6.2a1.355 1.355 0 0 0-1.574-1.462 4.1 4.1 0 0 0-.747.055 3.452 3.452 0 0 0-.617.187l-.006 7.418h-1.98l.006-8.279a6.333 6.333 0 0 1 1.495-.462 10.2 10.2 0 0 1 1.932-.167 3.847 3.847 0 0 1 2.644.757 2.487 2.487 0 0 1 .827 1.924l-.005 6.234z" class="cls-2" data-name="Path 63" transform="translate(-1360.568 -1565.946)"/>
            <path id="Path_64" d="M1459.107 1578.851a4.354 4.354 0 0 1-2.67-.691 2.336 2.336 0 0 1-.9-1.973 2.423 2.423 0 0 1 1.284-2.3 9.509 9.509 0 0 1 3.6-.931v-.471a1.294 1.294 0 0 0-.446-1.12 2.191 2.191 0 0 0-1.294-.327 4.6 4.6 0 0 0-1.138.137 5.422 5.422 0 0 0-1.059.4l-.453-1.136a7.249 7.249 0 0 1 1.309-.469 6.678 6.678 0 0 1 1.7-.194 3.661 3.661 0 0 1 2.357.708 2.8 2.8 0 0 1 .876 2.314v5.422a5.564 5.564 0 0 1-1.355.454 8.559 8.559 0 0 1-1.811.177zm1.319-4.95a5.936 5.936 0 0 0-2.3.648 1.7 1.7 0 0 0-.735 1.573 1.508 1.508 0 0 0 .472 1.226 2.07 2.07 0 0 0 1.371.4 2.644 2.644 0 0 0 1.191-.242z" class="cls-2" data-name="Path 64" transform="translate(-1373.266 -1565.957)"/>
            <path id="Path_65" d="M1483.3 1575.337l.011-12.742h1.98l-.011 12.742z" class="cls-2" data-name="Path 65" transform="translate(-1386.261 -1562.595)"/>
            <path id="Path_66" d="M1523.5 1567.892l-.006 7.483h-1.982l.007-7.482h-.974v-1.267h.974v-1.055a2.7 2.7 0 0 1 .894-2.191 3.822 3.822 0 0 1 2.517-.744v1.266a1.51 1.51 0 0 0-1.055.341 1.475 1.475 0 0 0-.373 1.135v1.25h1.428v1.267z" class="cls-2" data-name="Path 66" transform="translate(-1403.691 -1562.613)"/>
            <path id="Path_67" d="M1543.574 1565.589a1.113 1.113 0 0 1-.771-.284.9.9 0 0 1-.315-.691.91.91 0 0 1 .317-.7 1.212 1.212 0 0 1 1.551-.006.916.916 0 0 1 .308.714.9.9 0 0 1-.317.69 1.111 1.111 0 0 1-.773.277zm-1 10.258l.008-8.75h1.981l-.007 8.75z" class="cls-2" data-name="Path 67" transform="translate(-1413.962 -1563.077)"/>
            <path id="Path_68" d="M1563.947 1576.833a2.278 2.278 0 0 1-1.81-.684 2.482 2.482 0 0 1-.59-1.688v-5.21h-.974v-1.266h.974v-1.935l1.983-.551v2.487h1.428v1.266h-1.428v5.113q0 1.137.957 1.137a1.692 1.692 0 0 0 .47-.081v1.234a1.773 1.773 0 0 1-.414.122 2.975 2.975 0 0 1-.596.056z" class="cls-2" data-name="Path 68" transform="translate(-1422.428 -1563.953)"/>
            <path id="Path_69" d="M1587.819 1578.8l.005-6.2a1.354 1.354 0 0 0-1.574-1.462 4.223 4.223 0 0 0-.747.055 3.441 3.441 0 0 0-.616.187l-.007 7.418h-1.98l.007-8.279a6.337 6.337 0 0 1 1.494-.461 10.2 10.2 0 0 1 1.932-.169 3.848 3.848 0 0 1 2.644.757 2.487 2.487 0 0 1 .828 1.924l-.006 6.234z" class="cls-2" data-name="Path 69" transform="translate(-1432.877 -1566.009)"/>
            <path id="Path_70" d="M1612.1 1575.171q.24 2.436 2.384 2.437a5.244 5.244 0 0 0 1.25-.129 3.938 3.938 0 0 0 .958-.356l.469 1.25a4.865 4.865 0 0 1-1.209.446 7.2 7.2 0 0 1-1.68.169 3.833 3.833 0 0 1-2.969-1.187 4.814 4.814 0 0 1-1.085-3.378 5.017 5.017 0 0 1 1-3.318 3.373 3.373 0 0 1 2.736-1.191 3.123 3.123 0 0 1 2.62 1.131 5.352 5.352 0 0 1 .883 3.353zm1.789-4.04a1.587 1.587 0 0 0-1.4.755 4.161 4.161 0 0 0-.5 2.285l3.619-.557a3.159 3.159 0 0 0-.446-1.881 1.49 1.49 0 0 0-1.273-.602z" class="cls-2" data-name="Path 70" transform="translate(-1445.662 -1566.02)"/>
            <path id="Path_71" d="M1639.6 1578.992a5.27 5.27 0 0 1-1.37-.168 3.39 3.39 0 0 1-1.048-.459l.521-1.272a2.288 2.288 0 0 0 .691.36 2.789 2.789 0 0 0 .948.16 1.384 1.384 0 0 0 .975-.341 1.161 1.161 0 0 0 .375-.894 1.223 1.223 0 0 0-.284-.87 3.553 3.553 0 0 0-1.216-.661 2.8 2.8 0 0 1-1.354-.969 2.511 2.511 0 0 1 .351-3.205 2.775 2.775 0 0 1 2.006-.737 4.675 4.675 0 0 1 1.266.156 3.39 3.39 0 0 1 1.006.463l-.489 1.153a2.374 2.374 0 0 0-.59-.341 2.054 2.054 0 0 0-.8-.148 1.243 1.243 0 0 0-.917.332 1.113 1.113 0 0 0-.333.82 1.068 1.068 0 0 0 .323.812 4.236 4.236 0 0 0 1.251.682 3.041 3.041 0 0 1 1.369.992 2.579 2.579 0 0 1-.409 3.368 3.239 3.239 0 0 1-2.272.767z" class="cls-2" data-name="Path 71" transform="translate(-1458.285 -1566.031)"/>
            <path id="Path_72" d="M1663.253 1579.013a5.279 5.279 0 0 1-1.371-.169 3.447 3.447 0 0 1-1.047-.459l.521-1.272a2.279 2.279 0 0 0 .69.361 2.8 2.8 0 0 0 .949.16 1.385 1.385 0 0 0 .974-.341 1.161 1.161 0 0 0 .375-.894 1.225 1.225 0 0 0-.284-.87 3.553 3.553 0 0 0-1.216-.661 2.8 2.8 0 0 1-1.354-.969 2.512 2.512 0 0 1 .351-3.205 2.771 2.771 0 0 1 2.006-.737 4.664 4.664 0 0 1 1.266.155 3.4 3.4 0 0 1 1.005.462l-.488 1.153a2.4 2.4 0 0 0-.59-.341 2.045 2.045 0 0 0-.8-.148 1.242 1.242 0 0 0-.917.332 1.112 1.112 0 0 0-.333.819 1.067 1.067 0 0 0 .323.812 4.25 4.25 0 0 0 1.25.682 3.043 3.043 0 0 1 1.37.992 2.58 2.58 0 0 1-.408 3.369 3.241 3.241 0 0 1-2.272.769z" class="cls-2" data-name="Path 72" transform="translate(-1469.353 -1566.041)"/>
        </g>
        <path id="Path_73" d="M1697.573 1351.615a2.938 2.938 0 0 0 2.813-.741 2.9 2.9 0 0 0 .873-2.089v-65.529a4.482 4.482 0 0 0-6.254-4.13l-19.914 8.513a4.705 4.705 0 0 0-2.858 4.331v43.037l-22.686-6.211v-33.433a4.482 4.482 0 0 0-6.26-4.126l-19.914 8.536a4.706 4.706 0 0 0-2.853 4.329l-.011 46.485a4.036 4.036 0 0 0 2.966 3.885l48.755 13.314v47.233a2.922 2.922 0 0 0 4.091 2.688l22.367-9.682a4.284 4.284 0 0 0 2.581-3.931v-34.6a4.5 4.5 0 0 0-3.289-4.326l-16.412-4.553v-13.3zm-5.636 21.557v27.059l-10.378 4.479v-34.372zm-10.378-35.606v-41.974l10.378-4.479v49.293zm-9.331 7.251v13.21l-42.384-11.766v-38.495l10.378-4.479.015 32.957z" class="cls-3" data-name="Path 73" transform="translate(-1450.001 -1278.763)"/>
    </g>
</svg>
