<svg xmlns="http://www.w3.org/2000/svg" width="25.351" height="25.351" data-name="Group 28" viewBox="0 0 25.351 25.351">
    <path d="M25.351 12.349A12.468 12.468 0 0 1 6.89 23.162L0 25.351l2.246-6.627a12.225 12.225 0 0 1-1.785-6.375 12.445 12.445 0 0 1 24.89 0zM12.9 1.969A10.434 10.434 0 0 0 2.438 12.352a10.272 10.272 0 0 0 1.993 6.086l-1.306 3.854 4.019-1.277A10.409 10.409 0 1 0 12.9 1.969zm6.286 13.225c-.078-.125-.281-.2-.585-.353s-1.805-.884-2.084-.983-.484-.153-.688.15-.786.985-.966 1.188-.355.228-.661.079a8.408 8.408 0 0 1-2.454-1.5 9.111 9.111 0 0 1-1.7-2.1c-.179-.3-.018-.466.133-.617s.305-.354.458-.532a2.015 2.015 0 0 0 .3-.5.563.563 0 0 0-.026-.532c-.076-.152-.685-1.64-.941-2.246s-.507-.505-.686-.505-.381-.025-.584-.025a1.117 1.117 0 0 0-.812.377A3.388 3.388 0 0 0 6.823 9.62a5.851 5.851 0 0 0 1.245 3.131 12.493 12.493 0 0 0 5.212 4.57c3.1 1.211 3.1.807 3.661.756a3.078 3.078 0 0 0 2.058-1.438 2.516 2.516 0 0 0 .178-1.443zm0 0" data-name="Path 51"/>
</svg>
