<svg xmlns="http://www.w3.org/2000/svg" width="43.617" height="54.521" viewBox="0 0 43.617 54.521">
    <defs>
        <style>
            .cls-1{fill:#ffe800}
        </style>
    </defs>
    <g id="Group_18" data-name="Group 18">
        <path id="Path_24" d="M1050.835 765.231h-3.635a.859.859 0 0 1-.909-.909v-18.173a.858.858 0 0 1 .909-.909h3.635a.858.858 0 0 1 .908.909v18.174a.911.911 0 0 1-.908.908zm-2.726-1.817h1.817v-16.357h-1.817z" class="cls-1" data-name="Path 24" transform="translate(-1019.939 -745.24)"/>
        <path id="Path_25" d="M1021.152 799.827h-3.635a2.677 2.677 0 0 1-2.726-2.726v-3.635a2.678 2.678 0 0 1 2.726-2.726h3.635a2.677 2.677 0 0 1 2.726 2.726v3.634a2.734 2.734 0 0 1-2.726 2.727zm-3.635-7.269a.858.858 0 0 0-.909.909v3.633a.858.858 0 0 0 .909.909h3.635a.858.858 0 0 0 .909-.909v-3.635a.858.858 0 0 0-.909-.909z" class="cls-1" data-name="Path 25" transform="translate(-1004.795 -767.114)"/>
        <path id="Path_26" d="M1022.834 770.683h-3.634a.858.858 0 0 1-.909-.909v-23.625a.858.858 0 0 1 .909-.909h3.635a.858.858 0 0 1 .909.909v23.626a.911.911 0 0 1-.91.908zm-2.726-1.817h1.817v-21.809h-1.817z" class="cls-1" data-name="Path 26" transform="translate(-1006.478 -745.24)"/>
        <path id="Path_27" d="M1010.08 823.706a14.533 14.533 0 0 1-3.907-28.533.927.927 0 0 1 .818.182 1.123 1.123 0 0 1 .363.727v3.09a.686.686 0 0 0 .091.363 1 1 0 0 1 0 .727c-.091.273-.273.363-.545.454a9.062 9.062 0 1 0 12.267 8.451 9.24 9.24 0 0 0-5.906-8.542 2.4 2.4 0 0 1-.545-.454c-.182-.182-.091-.454 0-.727 0-.091.091-.182.091-.364v-3.089a.826.826 0 0 1 .363-.727.872.872 0 0 1 .818-.182 14.585 14.585 0 0 1-3.907 28.624zm-4.543-26.443a12.722 12.722 0 1 0 9.087 0v2a10.9 10.9 0 1 1-9.087 0v-2z" class="cls-1" data-name="Path 27" transform="translate(-995.541 -769.185)"/>
        <path id="Path_28" d="M1049.152 789.327h-3.635a2.677 2.677 0 0 1-2.726-2.726v-3.635a2.677 2.677 0 0 1 2.726-2.726h3.635a2.678 2.678 0 0 1 2.726 2.726v3.634a2.734 2.734 0 0 1-2.726 2.727zm-3.635-7.269a.858.858 0 0 0-.909.909v3.633a.858.858 0 0 0 .909.909h3.635a.859.859 0 0 0 .909-.909v-3.635a.858.858 0 0 0-.909-.909z" class="cls-1" data-name="Path 28" transform="translate(-1018.256 -762.066)"/>
        <path id="Path_29" d="M1047.616 813.206a15.787 15.787 0 0 1-3.544-.454.961.961 0 0 1-.636-.545.854.854 0 0 1 .091-.818 12.292 12.292 0 0 0 1.545-3.09.983.983 0 0 1 1-.636 9.336 9.336 0 0 0 1.545.091 9.114 9.114 0 0 0 9.087-9.087 9.24 9.24 0 0 0-5.906-8.542 1.336 1.336 0 0 1-.546-.454 1 1 0 0 1 0-.727c0-.091.091-.182.091-.363v-3.089a.827.827 0 0 1 .364-.727.871.871 0 0 1 .818-.182 14.585 14.585 0 0 1-3.907 28.624zm-1.908-2a13.558 13.558 0 0 0 1.908.182 12.734 12.734 0 0 0 4.544-24.625v2a10.9 10.9 0 0 1-4.544 20.809 4.423 4.423 0 0 1-1.09-.091 6.032 6.032 0 0 1-.818 1.726z" class="cls-1" data-name="Path 29" transform="translate(-1018.538 -764.137)"/>
        <path id="Path_30" d="M1032.88 793.3a.821.821 0 0 1-.454-.091 11.045 11.045 0 0 0-3-1.272.9.9 0 0 1-.636-.909v-.454a1.293 1.293 0 0 1 .182-.545 14.663 14.663 0 0 1 7.724-5.27.927.927 0 0 1 .818.182 1.122 1.122 0 0 1 .364.727v3.09a.688.688 0 0 0 .091.363 1 1 0 0 1 0 .727.93.93 0 0 1-.545.454 9.527 9.527 0 0 0-3.816 2.726 1.032 1.032 0 0 1-.728.272zm-2-2.817a9.854 9.854 0 0 1 1.727.727 12.8 12.8 0 0 1 3.362-2.453v-2a17.11 17.11 0 0 0-5.088 3.725z" class="cls-1" data-name="Path 30" transform="translate(-1011.526 -764.221)"/>
        <path id="Path_31" d="M1031.265 820.118a.82.82 0 0 1-.454-.091 14.731 14.731 0 0 1-7.269-12.54 16.513 16.513 0 0 1 .272-2.908.885.885 0 0 1 .909-.727h.636a.921.921 0 0 0 .818-.545.945.945 0 0 1 1.181-.545 9.684 9.684 0 0 1 1.726.818.841.841 0 0 1 .364 1.09 10.12 10.12 0 0 0-.455 2.817 9.194 9.194 0 0 0 4.453 7.815.841.841 0 0 1 .364 1.09 11.616 11.616 0 0 1-1.908 3.453 1.039 1.039 0 0 1-.637.273zm-5.816-14.539a12.22 12.22 0 0 0-.091 1.818 12.687 12.687 0 0 0 5.634 10.541 9.479 9.479 0 0 0 .909-1.636 10.905 10.905 0 0 1-4.725-8.905 9.381 9.381 0 0 1 .364-2.726.089.089 0 0 1-.091-.091 2.54 2.54 0 0 1-2 .999z" class="cls-1" data-name="Path 31" transform="translate(-1009.002 -772.866)"/>
    </g>
</svg>
