<svg xmlns="http://www.w3.org/2000/svg" width="43.971" height="34.791" viewBox="0 0 43.971 34.791">
    <defs>
        <style>
            .cls-1{fill:#ffe800}
        </style>
    </defs>
    <path id="Path_48" d="M1719.689 777.673a11.538 11.538 0 0 1-.6 3.673c-1.867 8.445-18.018 18.67-18.71 19.106a1.245 1.245 0 0 1-.7.2 1.274 1.274 0 0 1-.7-.2 87.3 87.3 0 0 1-9.343-6.936 1.319 1.319 0 0 1-.154-1.844 1.335 1.335 0 0 1 1.858-.154 87.9 87.9 0 0 0 8.354 6.271c4.852-3.161 15.561-11.211 16.869-17.134a9.354 9.354 0 0 0 .5-2.968 9.241 9.241 0 0 0-4.787-8.1 9.438 9.438 0 0 0-11.581 2.189 1.36 1.36 0 0 1-2.021 0 9.46 9.46 0 0 0-11.581-2.2 9.256 9.256 0 0 0-4.786 8.1 9.04 9.04 0 0 0 .459 2.841 10.241 10.241 0 0 0 1.038 2.6h7.653l2.624-6.041a1.315 1.315 0 0 1 2.48.216l1.933 8.181 2.5-4.1a1.315 1.315 0 0 1 1.127-.642h4.746a1.312 1.312 0 0 1 0 2.624h-4.019l-3.761 6.2a1.3 1.3 0 0 1-1.114.626 1.018 1.018 0 0 1-.2-.013 1.3 1.3 0 0 1-1.078-.986l-1.766-7.446-1.392 3.211a1.314 1.314 0 0 1-1.205.8h-15.292a1.312 1.312 0 0 1 0-2.624h3.853a16.7 16.7 0 0 1-1.2-5.438 11.865 11.865 0 0 1 6.156-10.391 55.619 55.619 0 0 0 27.706 0 11.865 11.865 0 0 1 6.156 10.391zm0 0" class="cls-1" data-name="Path 48" transform="translate(-1675.718 -765.864)"/>
</svg>
