<svg xmlns="http://www.w3.org/2000/svg" width="44.13" height="35.303" viewBox="0 0 44.13 35.303">
    <defs>
        <style>
            .cls-1{fill:#ffe800}
        </style>
    </defs>
    <path id="Path_46" d="M1544.083 764.169h-1.471v-3.677a2.209 2.209 0 0 0-2.206-2.206h-2.942a2.209 2.209 0 0 0-2.206 2.206v5.884h-1.731l-.161-.412a5.12 5.12 0 0 0-4.792-3.265h-.07a21.17 21.17 0 0 1-5.013-1.471 2.173 2.173 0 0 1-2.942 0 2.173 2.173 0 0 1-2.942 0 2.209 2.209 0 0 0-2.206 2.206v2.942h-2.206v-5.884a2.209 2.209 0 0 0-2.207-2.206h-2.942a2.209 2.209 0 0 0-2.207 2.206v3.677h-1.471a2.21 2.21 0 0 0-2.207 2.207v7.355a2.209 2.209 0 0 0 2.207 2.206h1.471v3.678a2.209 2.209 0 0 0 2.207 2.206h2.942a2.209 2.209 0 0 0 2.207-2.206v-5.884h1.668l.573 1.813a.745.745 0 0 0 .119.229l1.963 2.54-1.258 13.214a1.883 1.883 0 0 0 1.876 2.063h9.97a1.885 1.885 0 0 0 1.875-2.073l-1.285-12.849a.41.41 0 0 1 .142-.354l4.035-3.459a2.6 2.6 0 0 0 .752-1.122h1.634v5.884a2.209 2.209 0 0 0 2.206 2.206h2.942a2.209 2.209 0 0 0 2.206-2.206v-3.678h1.471a2.209 2.209 0 0 0 2.206-2.206v-7.355a2.21 2.21 0 0 0-2.207-2.209zm-17.652-1.471a.736.736 0 0 1 .735.735v4.334a.851.851 0 0 1-.336.679.644.644 0 0 1-.064.044.569.569 0 0 1-.124.048.7.7 0 0 1-.146.03 1.039 1.039 0 0 1-.3-.034.7.7 0 0 1-.166-.088.729.729 0 0 1-.094-.063 2.71 2.71 0 0 1-.177-.24.743.743 0 0 1-.064-.3v-4.413a.736.736 0 0 1 .736-.73zm-2.942 0a.736.736 0 0 1 .735.735v4.413a.735.735 0 1 1-1.471 0v-4.413a.736.736 0 0 1 .736-.733zm-2.942 0a.736.736 0 0 1 .736.735v4.413a.736.736 0 1 1-1.471 0v-4.413a.736.736 0 0 1 .735-.733zm-3.678.735a.736.736 0 0 1 1.471 0v4.413a.733.733 0 0 1-.065.3.764.764 0 0 1-.05.074.733.733 0 0 1-.127.166.7.7 0 0 1-.092.063.549.549 0 0 1-.289.113.755.755 0 0 1-.179.009.688.688 0 0 1-.144-.03.655.655 0 0 1-.126-.049.5.5 0 0 1-.063-.043.853.853 0 0 1-.336-.68v-4.334zm-12.5 11.032a.736.736 0 0 1-.736-.735v-7.355a.737.737 0 0 1 .736-.735h1.471v8.826zm7.355 5.149a.736.736 0 0 1-.736.735h-2.942a.736.736 0 0 1-.735-.735v-19.122a.736.736 0 0 1 .735-.736h2.942a.736.736 0 0 1 .736.736v19.123zm1.471-11.768h2.206a2.2 2.2 0 0 0 1.089 1.892c.04.024.081.044.122.066a1.761 1.761 0 0 0 .441.169c.048.012.1.029.146.038.015 0 .029.009.044.012.051.008.1 0 .154.008.071.007.139.021.211.021.021 0 .041-.006.062-.006.068 0 .133-.013.2-.02a2.2 2.2 0 0 0 .26-.043c.063-.015.123-.037.185-.057a2.383 2.383 0 0 0 .241-.1c.06-.029.117-.061.174-.1a2.258 2.258 0 0 0 .212-.143c.031-.024.066-.04.1-.065l.042-.037c.043.039.093.069.138.1s.09.071.138.1a2.287 2.287 0 0 0 .218.118c.049.024.1.052.146.073a2.171 2.171 0 0 0 .266.082c.046.012.088.029.135.039a2.151 2.151 0 0 0 .857 0c.048-.01.091-.027.138-.04a2.253 2.253 0 0 0 .263-.081c.052-.022.1-.049.149-.074a2.226 2.226 0 0 0 .215-.117c.049-.032.094-.069.139-.1s.095-.065.137-.1c.043.038.092.068.138.1s.091.073.14.1a2.331 2.331 0 0 0 .216.117c.05.025.1.053.149.075a2.137 2.137 0 0 0 .263.082c.047.012.091.03.138.04a2.283 2.283 0 0 0 .428.042 2.243 2.243 0 0 0 .429-.043c.046-.01.089-.027.135-.039a2.252 2.252 0 0 0 .265-.082c.052-.021.1-.049.147-.074a2.162 2.162 0 0 0 .217-.118c.048-.032.092-.068.138-.1s.1-.065.138-.1l.042.037c.03.025.065.041.1.064a2.226 2.226 0 0 0 .214.145c.056.033.112.065.171.093a2.23 2.23 0 0 0 .25.1c.058.02.115.04.175.054a2.174 2.174 0 0 0 .275.045 1.84 1.84 0 0 0 .184.019c.022 0 .043.006.066.006a2.081 2.081 0 0 0 .214-.022c.05 0 .1 0 .151-.008l.049-.012c.033-.006.065-.016.1-.024a1.987 1.987 0 0 0 .274-.085c.049-.019.1-.038.142-.06s.1-.053.151-.082a2.2 2.2 0 0 0 1.074-1.44.717.717 0 0 1 .054.263v2.637l-1.04 1.04h-14.405zm14.687 9.348a1.887 1.887 0 0 0-.649 1.619l1.285 12.85a.413.413 0 0 1-.412.455h-9.97a.414.414 0 0 1-.412-.453l1.286-13.5a.738.738 0 0 0-.15-.52l-2.061-2.665-.393-1.245h11.194a1.479 1.479 0 0 0 1.04-.431l1.04-1.04a1.46 1.46 0 0 0 .431-1.04v-2.637a2.2 2.2 0 0 0-1.471-2.071v-2.346a3.655 3.655 0 0 1 3.357 2.331l.276.7a.418.418 0 0 1 .044.185v5.481a1.152 1.152 0 0 1-.4.873zm5.907-4.935v-4.413h1.471v4.413zm7.355 7.355a.736.736 0 0 1-.735.735h-2.942a.736.736 0 0 1-.735-.735v-19.122a.736.736 0 0 1 .735-.736h2.942a.736.736 0 0 1 .735.736v19.123zm3.678-5.884a.736.736 0 0 1-.735.735h-1.471v-8.826h1.471a.736.736 0 0 1 .735.735z" class="cls-1" data-name="Path 46" transform="translate(-1502.16 -758.286)"/>
</svg>
