<svg xmlns="http://www.w3.org/2000/svg" width="44.13" height="26.8" viewBox="0 0 44.13 26.8">
    <defs>
        <style>
            .cls-1{fill:#ffe800}
        </style>
    </defs>
    <path id="Path_45" d="M1346.173 785.833a11.693 11.693 0 0 0 3.545-.527c6.119-1.946 9.159-9.046 9.286-9.347l.331-.789-.726-.452a21.114 21.114 0 0 0-7.036-2.59l-.307-.05.049-.308a21.081 21.081 0 0 0-.251-7.5l-.2-.832-.853.067a21.158 21.158 0 0 0-7.109 2.047l-.277.14-.142-.276a21.172 21.172 0 0 0-4.558-5.831l-.651-.555-.652.555a21.176 21.176 0 0 0-4.558 5.831l-.142.276-.277-.14a21.168 21.168 0 0 0-7.109-2.047l-.853-.067-.2.831a21.064 21.064 0 0 0-.252 7.5l.049.308-.308.05a21.119 21.119 0 0 0-7.035 2.59l-.727.453.331.789c.127.3 3.167 7.4 9.286 9.347a11.681 11.681 0 0 0 3.544.527 19.377 19.377 0 0 0 8.6-2.324l.187-.1.114.1.114-.1.187.1a19.362 19.362 0 0 0 8.6 2.324zm4.519-11.548l.085-.245.257.038a18.839 18.839 0 0 1 5.442 1.767l.289.144-.153.285c-2.673 4.967-5.849 6.592-7.5 7.118a9.659 9.659 0 0 1-2.926.431 15.029 15.029 0 0 1-4.792-.865l-.919-.312.928-.284a14.87 14.87 0 0 0 7.739-5.055 11.6 11.6 0 0 0 1.55-3.023zm-6.677-3.015a11.66 11.66 0 0 0-.547-3.456l-.078-.249.232-.121a18.887 18.887 0 0 1 5.338-1.761l.318-.057.046.32c.8 5.584-.794 8.776-1.813 10.182a12.724 12.724 0 0 1-6.414 4.215l-.938.3.592-.788a14.844 14.844 0 0 0 3.264-8.585zm-10.857 11.69a14.956 14.956 0 0 1-4.785.865 9.7 9.7 0 0 1-2.942-.434c-1.648-.524-4.813-2.146-7.5-7.121l-.154-.285.29-.144a18.72 18.72 0 0 1 5.441-1.765l.256-.038.085.245a11.606 11.606 0 0 0 1.553 3.024 14.879 14.879 0 0 0 7.748 5.057l.928.283zm.284-2.617a12.723 12.723 0 0 1-6.414-4.215c-1.015-1.4-2.6-4.584-1.811-10.181l.045-.321.32.057a18.921 18.921 0 0 1 5.335 1.761l.231.121-.078.249a11.655 11.655 0 0 0-.546 3.456 14.844 14.844 0 0 0 3.263 8.588l.591.788zm3.827.466l-.225-.233c-3.923-4.052-4.509-7.571-4.509-9.307s.586-5.238 4.512-9.307l.225-.233.225.233c3.923 4.052 4.509 7.57 4.509 9.307s-.586 5.238-4.512 9.307z" class="cls-1" data-name="Path 45" transform="translate(-1315.205 -759.033)"/>
</svg>
