<svg xmlns="http://www.w3.org/2000/svg" width="48.651" height="29.546" viewBox="0 0 48.651 29.546">
    <defs>
        <style>
            .cls-1{fill:#706f6f}
        </style>
    </defs>
    <path id="Path_50" d="M1349.346 788.579a12.893 12.893 0 0 0 3.908-.581c6.746-2.146 10.1-9.973 10.237-10.3l.365-.87-.8-.5a23.281 23.281 0 0 0-7.757-2.856l-.339-.055.054-.339a23.231 23.231 0 0 0-.277-8.264l-.222-.917-.941.073a23.323 23.323 0 0 0-7.838 2.257l-.306.154-.157-.3a23.344 23.344 0 0 0-5.025-6.429l-.718-.611-.718.611a23.349 23.349 0 0 0-5.024 6.429l-.157.3-.306-.154a23.331 23.331 0 0 0-7.838-2.257l-.941-.073-.223.917a23.226 23.226 0 0 0-.277 8.264l.054.339-.339.055a23.285 23.285 0 0 0-7.756 2.855l-.8.5.365.87c.14.332 3.491 8.16 10.238 10.3a12.879 12.879 0 0 0 3.907.581 21.362 21.362 0 0 0 9.484-2.563l.206-.109.125.107.125-.107.207.109a21.348 21.348 0 0 0 9.484 2.564zm4.982-12.732l.093-.27.283.042a20.771 20.771 0 0 1 6 1.948l.319.158-.169.314c-2.947 5.476-6.448 7.267-8.272 7.847a10.648 10.648 0 0 1-3.226.475 16.567 16.567 0 0 1-5.283-.953l-1.013-.344 1.023-.313c2.632-.8 6.25-2.424 8.532-5.572a12.8 12.8 0 0 0 1.713-3.332zm-7.361-3.324a12.852 12.852 0 0 0-.6-3.81l-.086-.275.255-.133a20.825 20.825 0 0 1 5.885-1.942l.351-.063.051.353c.879 6.156-.875 9.675-2 11.225a14.029 14.029 0 0 1-7.071 4.647l-1.034.333.652-.868c1.641-2.184 3.597-5.601 3.597-9.467zM1335 785.412a16.493 16.493 0 0 1-5.276.953 10.694 10.694 0 0 1-3.243-.479c-1.817-.578-5.307-2.366-8.27-7.85l-.17-.314.32-.159a20.64 20.64 0 0 1 6-1.945l.283-.042.094.27a12.807 12.807 0 0 0 1.712 3.334c2.285 3.151 5.906 4.771 8.542 5.576l1.023.312zm.313-2.885a14.025 14.025 0 0 1-7.071-4.647c-1.119-1.543-2.866-5.053-2-11.224l.05-.354.352.063a20.862 20.862 0 0 1 5.882 1.941l.255.133-.086.275a12.846 12.846 0 0 0-.6 3.81c0 3.866 1.956 7.283 3.6 9.468l.652.869zm4.219.514l-.248-.257c-4.324-4.468-4.97-8.346-4.97-10.261s.646-5.775 4.974-10.261l.248-.257.248.257c4.325 4.467 4.971 8.346 4.971 10.261s-.646 5.774-4.974 10.26z" class="cls-1" data-name="Path 50" transform="translate(-1315.205 -759.033)"/>
</svg>
