<svg xmlns="http://www.w3.org/2000/svg" width="43.468" height="35.657" viewBox="0 0 43.468 35.657">
    <defs>
        <style>
            .cls-1{fill:#ffe800}
        </style>
    </defs>
    <path id="Path_44" d="M1147.456 756.345a1.865 1.865 0 1 0 1.873 1.865 1.871 1.871 0 0 0-1.873-1.865zm0 2.456a.591.591 0 1 1 .6-.591.6.6 0 0 1-.6.59zm37.25 20.876h-16.62a.637.637 0 1 0 0 1.273h2.632v6.913h-2.847v-3.948a.637.637 0 0 0-1.274 0v3.948h-2.847v-6.913h1.89a.637.637 0 1 0 0-1.273h-11.593a4.3 4.3 0 0 1-4.308-4.275v-3.275a4.243 4.243 0 0 1 1.2-2.956v6.534c-.053.035-.1.072-.156.109a.637.637 0 0 0 .743 1.034 4.3 4.3 0 0 1 2.523-.809H1173a5.621 5.621 0 0 0 5.024-3.13.637.637 0 0 0-1.145-.558 4.294 4.294 0 0 1-1.595 1.758v-6.744a5.608 5.608 0 0 0 2.023-1.538v4.662a.637.637 0 1 0 1.274 0v-11.46a5.572 5.572 0 0 0-5.581-5.549h-9.931a.637.637 0 1 0 0 1.274h2.7v6.913h-2.847v-3.948a.637.637 0 1 0-1.273 0v3.948h-2.847v-6.913h1.918a.637.637 0 1 0 0-1.274h-16.56a1.46 1.46 0 0 0-1.461 1.455v6.549a1.46 1.46 0 0 0 1.461 1.455H1173a4.308 4.308 0 0 1 2.41.731.637.637 0 0 0 .71-1.058 5.628 5.628 0 0 0-.835-.462v-6.746a4.27 4.27 0 0 1 2.023 3.623v3.273a4.3 4.3 0 0 1-4.308 4.275h-18.955a5.572 5.572 0 0 0-5.582 5.549v11.461a5.571 5.571 0 0 0 5.582 5.549h30.657a1.46 1.46 0 0 0 1.461-1.455v-6.55a1.46 1.46 0 0 0-1.456-1.451zm-34.561-18.113a.189.189 0 0 1-.169.1h-5.818a.185.185 0 0 1-.187-.182v-6.549a.185.185 0 0 1 .187-.182h5.818a.19.19 0 0 1 .169.1 7.483 7.483 0 0 1 0 6.71zm7.387.1h-2.023v-3.948a.637.637 0 0 0-1.274 0v3.948h-2.735a8.77 8.77 0 0 0 0-6.913h6.029v6.913zm16.482.091a5.636 5.636 0 0 0-1.011-.091h-1.836v-3.948a.637.637 0 0 0-1.273 0v3.948h-2.847v-6.913H1173a4.323 4.323 0 0 1 1.011.119zm-6.968 6.094H1173a5.606 5.606 0 0 0 1.011-.091v6.883a4.293 4.293 0 0 1-1.011.121h-1.836v-3.948a.637.637 0 1 0-1.273 0v3.948h-2.847zm-8.241 0h6.968v6.913h-2.847v-3.948a.637.637 0 1 0-1.273 0v3.948h-2.847v-6.913zm-6.593.408a4.307 4.307 0 0 1 1.836-.408h3.484v6.913h-2.023v-3.948a.637.637 0 0 0-1.274 0v3.948h-.187a5.605 5.605 0 0 0-1.836.306zm2.023 19.6h-.187a4.307 4.307 0 0 1-1.836-.408V783.1a.637.637 0 1 0-1.274 0v3.447a4.243 4.243 0 0 1-1.2-2.956v-4.662a5.587 5.587 0 0 0 4.308 2.024h.187zm8.241 0h-2.847v-3.948a.637.637 0 0 0-1.274 0v3.948h-2.847v-6.913h6.968zm14.885 0h-2.073v-3.948a.637.637 0 0 0-1.274 0v3.948h-2.023v-6.913h5.37a8.774 8.774 0 0 0 0 6.913zm7.531-.182a.185.185 0 0 1-.187.182h-5.818a.19.19 0 0 1-.169-.1 7.484 7.484 0 0 1 0-6.709.19.19 0 0 1 .169-.1h5.818a.185.185 0 0 1 .187.182zm-3.484-5.14a1.865 1.865 0 1 0 1.873 1.865 1.871 1.871 0 0 0-1.871-1.857zm0 2.456a.591.591 0 1 1 .6-.591.6.6 0 0 1-.598.6z" class="cls-1" data-name="Path 44" transform="translate(-1142.699 -753.48)"/>
</svg>
